{"title":"The Eagle-AC3-XviD-R5 2011 TBS","uid":6318926,"size":1882286329,"categoryP":"video","categoryS":"movies","magnet":"?xt=urn:btih:a544737cbcc06c82c2df0219b132c1048b78c85f&amp;dn=The+Eagle-AC3-XviD-R5+2011+TBS&amp;tr=udp%3A%2F%2Ftracker.openbittorrent.com%3A80&amp;tr=udp%3A%2F%2Fopen.demonii.com%3A1337&amp;tr=udp%3A%2F%2Ftracker.coppersurfer.tk%3A6969&amp;tr=udp%3A%2F%2Fexodus.desync.com%3A6969","seeders":0,"leechers":0,"uploader":"FatFreddy30","files":-1,"time":1302798211,"description":"In Roman-ruled Britain, a young Roman soldier endeavors to honor his father's memory by finding his lost legion's golden emblem...\n &lt;a href=&quot;\nhttp://www.imdb.com/title/tt1034389/&quot; rel=&quot;nofollow&quot; target=&quot;_NEW&quot;&gt;\nhttp://www.imdb.com/title/tt1034389/&lt;/a&gt;\n\nSubs: Dutch, English (srt).\n\n\nHet is het jaar 140, 20 jaar eerder marcheerden het Negende Legioen van Rome, onder het bevel van Flavius Aquila, naar het noorden. Het keerde nooit meer terug. Flavius's zoon Marcus is vastbesloten om de geschonden reputatie van zijn vader te herstellen. Alleen begeleid door zijn slaaf Esca rijdt Marcus uit naar het noorden. Tijdens de reis beseft Marcus dat de verdwijning van zijn vader mogelijk gekoppeld is aan de mysterieuze identiteit van Esca. Het mysterie wordt steeds groter wanneer ze tegenover de krijgers van de angstaanjagende Seal Prins komen te staan...\n &lt;a href=&quot;\nhttp://www.moviemeter.nl/film/61589&quot; rel=&quot;nofollow&quot; target=&quot;_NEW&quot;&gt;\nhttp://www.moviemeter.nl/film/61589&lt;/a&gt;\n\nOndertitels: Engels, Nederlands (srt).\n\nGeneral\nComplete name                    : The Eagle-AC3-XviD-R5 2011.avi\nFormat                           : AVI\nFormat/Info                      : Audio Video Interleave\nFile size                        : 1.75 GiB\nDuration                         : 1h 49mn\nOverall bit rate                 : 2 293 Kbps\nWriting application              : VirtualDubMod 1.5.4.1 (build 2178/release)\nWriting library                  : VirtualDubMod build 2178/release\n\nVideo\nID                               : 0\nFormat                           : MPEG-4 Visual\nFormat profile                   : Simple@L3\nFormat settings, BVOP            : No\nFormat settings, QPel            : No\nFormat settings, GMC             : No warppoints\nFormat settings, Matrix          : Default (H.263)\nCodec ID                         : XVID\nCodec ID/Hint                    : XviD\nDuration                         : 1h 49mn\nBit rate                         : 2 091 Kbps\nWidth                            : 720 pixels\nHeight                           : 304 pixels\nDisplay aspect ratio             : 2.35:1\nFrame rate                       : 25.000 fps\nResolution                       : 8 bits\nColorimetry                      : 4:2:0\nScan type                        : Progressive\nBits/(Pixel*Frame)               : 0.382\nStream size                      : 1.60 GiB (91%)\nWriting library                  : XviD 1.1.2 (UTC 2006-11-01)\n\nAudio\nID                               : 1\nFormat                           : AC-3\nFormat/Info                      : Audio Coding 3\nCodec ID                         : 2000\nDuration                         : 1h 49mn\nBit rate mode                    : Constant\nBit rate                         : 192 Kbps\nChannel(s)                       : 2 channels\nChannel positions                : L R\nSampling rate                    : 48.0 KHz\nStream size                      : 150 MiB (8%)\nAlignment                        : Split accross interleaves\nInterleave, duration             : 40 ms (1.00 video frame)\nInterleave, preload duration     : 500 ms\n\nThanks to Simply ReleaseS Toppers.\n\nEnjoy..\n\nTBS.","torrent":{"xt":"urn:btih:a544737cbcc06c82c2df0219b132c1048b78c85f","amp;dn":"The+Eagle-AC3-XviD-R5+2011+TBS","amp;tr":["udp%3A%2F%2Ftracker.openbittorrent.com%3A80","udp%3A%2F%2Fopen.demonii.com%3A1337","udp%3A%2F%2Ftracker.coppersurfer.tk%3A6969","udp%3A%2F%2Fexodus.desync.com%3A6969"],"infoHash":"a544737cbcc06c82c2df0219b132c1048b78c85f","infoHashBuffer":{"type":"Buffer","data":[165,68,115,124,188,192,108,130,194,223,2,25,177,50,193,4,139,120,200,95]},"announce":[],"urlList":[]}}